<svg fill="#FFF" viewBox="0 0 120 120" width="120" height="120" xmlns="http://www.w3.org/2000/svg" aria-hidden="true" focusable="false"><path fill="none" d="M0 0h120v120H0z"/><path d="M75 92.5c-12.55 0-23.4-7.1-28.8-17.5H75l5-10H42.9c-.25-1.65-.4-3.3-.4-5 0-1.7.15-3.35.4-5H75l5-10H46.2C51.6 34.6 62.5 27.5 75 27.5c8.05 0 15.45 2.95 21.15 7.85L105 26.5A44.775 44.775 0 0 0 75 15c-19.6 0-36.2 12.55-42.4 30H15l-5 10h20.3c-.2 1.65-.3 3.3-.3 5 0 1.7.1 3.35.3 5H15l-5 10h22.6c6.2 17.45 22.8 30 42.4 30 11.55 0 22.05-4.35 30-11.5l-8.9-8.85c-5.65 4.9-13 7.85-21.1 7.85Z" /></svg>
