<svg fill="#FE6" width="120" height="120" viewBox="0 0 120 120" xmlns="http://www.w3.org/2000/svg" aria-hidden="true" focusable="false"><path fill="none" d="M0 0h120v120H0z"/><path d="M100 40H85V20H15C9.5 20 5 24.5 5 30v55h10c0 8.3 6.7 15 15 15s15-6.7 15-15h30c0 8.3 6.7 15 15 15s15-6.7 15-15h10V60l-15-20Zm-2.5 7.5 9.8 12.5H85V47.5h12.5ZM30 90c-2.75 0-5-2.25-5-5s2.25-5 5-5 5 2.25 5 5-2.25 5-5 5Zm11.1-15c-2.75-3.05-6.65-5-11.1-5-4.45 0-8.35 1.95-11.1 5H15V30h60v45H41.1ZM90 90c-2.75 0-5-2.25-5-5s2.25-5 5-5 5 2.25 5 5-2.25 5-5 5Z" /></svg>
