<svg aria-hidden="true" focusable="false" fill="#FBA" viewBox="0 0 120 120" width="120" height="120" xmlns="http://www.w3.org/2000/svg"><path fill="none" d="M0 0h120v120H0z"/><path d="M58.55 89.95C42.65 89.2 30 76.1 30 60c0-16.55 13.45-30 30-30 16.1 0 29.2 12.65 29.95 28.55l-10.5-3.15C77.4 46.55 69.45 40 60 40c-11.05 0-20 8.95-20 20 0 9.45 6.55 17.4 15.4 19.45l3.15 10.5ZM110 60c0 1.5-.05 3-.2 4.5l-9.85-2.95c.05-.5.05-1.05.05-1.55 0-22.1-17.9-40-40-40S20 37.9 20 60s17.9 40 40 40c.5 0 1.05 0 1.55-.05l2.95 9.85c-1.5.15-3 .2-4.5.2-27.6 0-50-22.4-50-50s22.4-50 50-50 50 22.4 50 50ZM91.15 81.3 110 75 60 60l15 50 6.3-18.85 21.35 21.35 9.9-9.9-21.4-21.3Z" /></svg>
