<svg fill="#000" aria-hidden="true" focusable="false" aria-labelledby="mastercardTitle" width="48" height="30" xmlns="http://www.w3.org/2000/svg"><title id="mastercardTitle">Paiements compatibles Mastercard</title><rect stroke="#000" fill="none" x=".5" y=".5" width="47" height="29" rx="2"/><path d="M14.088 26.858v-1.583c0-.607-.37-1.002-.98-1.002-.32 0-.663.105-.901.445-.186-.29-.448-.445-.848-.445a.902.902 0 0 0-.768.369v-.318h-.504v2.532h.504v-1.449c0-.446.265-.66.636-.66s.583.238.583.66v1.451h.504v-1.451c0-.446.265-.66.636-.66s.583.238.583.66v1.451h.555zm8.27-2.506h-.928v-.765h-.502v.765h-.53v.445h.53v1.19c0 .58.212.924.848.924.241-.005.477-.069.688-.185l-.16-.446a.875.875 0 0 1-.477.132c-.265 0-.397-.158-.397-.422v-1.213h.928v-.425zm4.718-.08a.794.794 0 0 0-.689.37v-.318h-.503v2.532h.503v-1.422c0-.423.212-.686.557-.686.116.004.232.022.344.053l.16-.476a1.8 1.8 0 0 0-.372-.052zm-7.13.264c-.265-.184-.636-.263-1.033-.263-.637 0-1.034.29-1.034.791 0 .423.292.66.848.74l.265.025c.292.053.477.159.477.29 0 .185-.211.32-.61.32a1.402 1.402 0 0 1-.847-.264l-.265.395c.37.264.821.319 1.088.319.742 0 1.14-.343 1.14-.818 0-.446-.32-.66-.875-.74l-.265-.025c-.24-.026-.448-.106-.448-.264 0-.185.211-.318.503-.318.32 0 .636.131.796.21l.26-.398zm7.687 1.056c0 .764.504 1.319 1.326 1.319.37 0 .636-.08.9-.29l-.264-.396a1.075 1.075 0 0 1-.663.237c-.448 0-.795-.342-.795-.844 0-.5.343-.84.795-.84.242.002.475.085.663.237l.265-.396c-.265-.21-.53-.29-.901-.29-.796-.053-1.326.5-1.326 1.266v-.003zm-3.552-1.32c-.742 0-1.246.528-1.246 1.32 0 .791.53 1.319 1.299 1.319.374.008.739-.113 1.033-.343l-.265-.37a1.27 1.27 0 0 1-.742.264c-.344 0-.716-.21-.768-.659h1.882v-.21c0-.792-.477-1.32-1.193-1.32zm-.026.476c.371 0 .636.237.662.633H23.34c.079-.37.32-.633.715-.633zm-6.865.844v-1.267h-.504v.319c-.186-.238-.448-.37-.822-.37-.715 0-1.246.555-1.246 1.32s.53 1.319 1.246 1.319c.372 0 .636-.132.822-.37v.319h.504v-1.27zm-2.041 0c0-.475.292-.844.795-.844.478 0 .768.37.768.844 0 .501-.32.844-.768.844-.503.026-.795-.37-.795-.844zm19.589-1.32a.794.794 0 0 0-.69.37v-.318h-.503v2.532h.503v-1.422c0-.423.212-.686.557-.686.116.004.232.022.344.053l.16-.476a1.8 1.8 0 0 0-.372-.052zm-1.962 1.32v-1.267h-.503v.319c-.186-.238-.448-.37-.822-.37-.716 0-1.246.555-1.246 1.32s.53 1.319 1.246 1.319c.371 0 .636-.132.822-.37v.319h.503v-1.27zm-2.04 0c0-.475.291-.844.795-.844.477 0 .768.37.768.844 0 .501-.32.844-.768.844-.504.026-.796-.37-.796-.844zm7.156 0v-2.27h-.503v1.32c-.186-.238-.448-.37-.822-.37-.715 0-1.246.555-1.246 1.32s.53 1.319 1.246 1.319c.371 0 .636-.132.822-.37v.319h.503v-1.268zm-2.04 0c0-.475.291-.844.795-.844.477 0 .768.37.768.844 0 .501-.32.844-.768.844-.504.026-.796-.37-.796-.844zm.425-19.723A9.564 9.564 0 0 0 24 4.854a9.574 9.574 0 0 0-9.903-.707 9.485 9.485 0 0 0-5.166 8.439 9.485 9.485 0 0 0 5.166 8.438A9.574 9.574 0 0 0 24 20.318a9.574 9.574 0 0 0 9.903.706 9.485 9.485 0 0 0 5.166-8.438 9.414 9.414 0 0 0-2.793-6.717h.001zM24 18.815a8.302 8.302 0 0 1-2.817-6.228A8.302 8.302 0 0 1 24 6.36a8.306 8.306 0 0 1 2.815 6.228A8.306 8.306 0 0 1 24 18.815zm-5.527 2.077c-4.608 0-8.343-3.718-8.343-8.303 0-4.586 3.735-8.304 8.343-8.304a8.255 8.255 0 0 1 4.548 1.347 9.492 9.492 0 0 0-3.037 6.954c0 2.637 1.1 5.156 3.037 6.955a8.255 8.255 0 0 1-4.548 1.35zm11.054 0a8.255 8.255 0 0 1-4.544-1.347 9.498 9.498 0 0 0 3.035-6.955 9.498 9.498 0 0 0-3.035-6.956 8.255 8.255 0 0 1 4.548-1.349c4.608 0 8.343 3.718 8.343 8.304 0 4.585-3.735 8.303-8.343 8.303h-.004z" /></svg>
