<svg aria-hidden="true" focusable="false" fill="#000" aria-labelledby="visaTitle" width="48" height="30" xmlns="http://www.w3.org/2000/svg"><title id="visaTitle">Paiements compatibles Visa</title><rect stroke="#000" fill="none" x=".5" y=".5" width="47" height="29" rx="2"/><path d="M30.508 8.565c1.222 0 2.22.23 2.898.465l.163.058-.463 2.703-.306-.144a6.326 6.326 0 0 0-2.556-.478c-1.337 0-1.956.554-1.956 1.073-.007.584.724.969 1.917 1.546 1.97.89 2.88 1.969 2.867 3.387-.026 2.589-2.357 4.26-5.946 4.26-1.43-.014-2.81-.278-3.636-.596l-.168-.069.48-2.791.44.198c1.12.466 1.847.654 3.214.654.981 0 2.034-.381 2.043-1.217.006-.546-.44-.936-1.77-1.547-1.295-.596-3.011-1.596-2.992-3.387.02-2.424 2.397-4.115 5.771-4.115zm11.818.228l2.764 12.461H41.92s-.313-1.432-.415-1.868h-.184l-4.031-.005h-.159c-.125.317-.652 1.697-.713 1.858l-.006.015h-3.586l5.072-11.427c.335-.758.89-1.001 1.627-1.03l.16-.004h2.64zM23.32 8.781l-2.137 12.47H17.77l2.135-12.47h3.415zm-14.86.002c.742.027 1.342.263 1.548 1.052l1.198 5.73.356 1.728 3.343-8.503h3.618l-5.376 12.445-3.614.005-3.036-10.83A14.371 14.371 0 0 0 2.91 9.042l.044-.26zm31.468 3.371c-.172.469-.473 1.224-.453 1.19 0 0-.997 2.559-1.324 3.394l-.036.092h2.834c-.13-.6-.74-3.375-.787-3.588l-.003-.012-.23-1.076z" /></svg>
