<svg fill="#000" aria-hidden="true" focusable="false" aria-labelledby="paypalTitle" role="img" width="48" height="30" xmlns="http://www.w3.org/2000/svg"><title id="paypalTitle">Paiements compatibles PayPal</title><rect stroke="#000" fill="none" x=".5" y=".5" width="47" height="29" rx="2"/><path d="M7.544 15.426c1.147 0 2.047-.321 2.7-.965.654-.644.98-1.536.98-2.677 0-.783-.256-1.35-.77-1.702-.513-.352-1.183-.528-2.01-.528h-3.2c-.253 0-.393.126-.42.378l-1.3 8.122a.265.265 0 0 0 .06.219c.053.066.12.1.2.1h1.52c.267 0 .413-.127.44-.379l.36-2.19a.386.386 0 0 1 .14-.258c.08-.066.18-.11.3-.13a2.1 2.1 0 0 1 .34-.03c.107 0 .233.007.38.02.147.014.24.02.28.02zm7.95-1.144c.247.219.37.52.37.905 0 .491-.17.9-.51 1.224a1.74 1.74 0 0 1-1.25.488c-.386 0-.696-.106-.93-.318-.233-.212-.35-.504-.35-.876 0-.49.167-.906.5-1.244a1.67 1.67 0 0 1 1.24-.508c.374 0 .684.11.93.329zm2.73-1.483a.267.267 0 0 0-.06-.22.247.247 0 0 0-.2-.099h-1.52c-.186 0-.3.22-.34.657-.36-.53-.993-.796-1.9-.796-.96 0-1.776.358-2.45 1.075-.673.716-1.01 1.56-1.01 2.528 0 .783.23 1.407.69 1.871.46.465 1.077.697 1.85.697.374 0 .76-.08 1.16-.24.4-.158.72-.37.96-.636-.053.159-.08.298-.08.418 0 .212.087.318.26.318h1.38c.254 0 .4-.126.44-.378l.82-5.195zm2.621 7.623a.424.424 0 0 0 .36-.198l5.1-7.326c.027-.026.04-.072.04-.14a.282.282 0 0 0-.08-.188.238.238 0 0 0-.18-.09h-1.54a.424.424 0 0 0-.36.2l-2.12 3.105-.88-2.986c-.067-.212-.213-.319-.44-.319h-1.5a.236.236 0 0 0-.18.09.28.28 0 0 0-.08.189c0 .027.13.418.39 1.174l.84 2.449c.3.876.457 1.34.47 1.393-1.094 1.486-1.64 2.283-1.64 2.389 0 .172.087.258.26.258h1.54zm9.42-4.996c1.147 0 2.047-.321 2.7-.965.654-.644.98-1.536.98-2.677 0-.783-.256-1.35-.77-1.702-.513-.352-1.183-.528-2.01-.528h-3.18c-.266 0-.413.126-.44.378l-1.3 8.122a.265.265 0 0 0 .06.219c.053.066.12.1.2.1h1.64c.16 0 .267-.087.32-.26l.36-2.308a.386.386 0 0 1 .14-.26c.08-.065.18-.109.3-.129a2.1 2.1 0 0 1 .34-.03c.107 0 .234.007.38.02.147.014.24.02.28.02zm7.951-1.144c.246.219.37.52.37.905 0 .478-.17.883-.51 1.215-.34.331-.75.497-1.23.497-.387 0-.7-.106-.94-.318-.24-.212-.36-.504-.36-.876 0-.49.166-.906.5-1.244a1.67 1.67 0 0 1 1.24-.508c.373 0 .683.11.93.329zm2.73-1.483a.267.267 0 0 0-.06-.22.247.247 0 0 0-.2-.099h-1.52c-.187 0-.3.22-.34.657-.347-.53-.98-.796-1.9-.796-.96 0-1.777.358-2.45 1.075-.674.716-1.01 1.56-1.01 2.528 0 .783.23 1.407.69 1.871.46.465 1.076.697 1.85.697.386 0 .78-.08 1.18-.24.4-.158.713-.37.94-.636 0 .013-.014.073-.04.179-.027.106-.04.186-.04.239 0 .212.086.318.26.318h1.38c.253 0 .4-.126.44-.378l.82-5.195zm3.54-2.946v-.02c0-.186-.087-.279-.26-.279h-1.48c-.147 0-.233.073-.26.22l-1.3 8.28-.02.04c0 .066.027.13.08.189.053.06.12.09.2.09h1.32c.253 0 .393-.127.42-.379l1.3-8.141zm-13.16 1.761c.16.14.24.342.24.607 0 .558-.147.936-.44 1.135-.294.2-.734.299-1.32.299l-.64.02.34-2.13c.026-.146.113-.22.26-.22h.36c.293 0 .526.014.7.04.173.027.34.11.5.25zm-22.762-.06c.24.153.32.475.24.966-.067.465-.24.77-.52.916-.28.146-.68.219-1.2.219l-.66.02.34-2.13c.027-.146.114-.22.26-.22h.38c.534 0 .92.077 1.16.23z" /></svg>
