<svg fill="#000" aria-hidden="true" focusable="false" aria-labelledby="maestroTitle" width="48" height="30" xmlns="http://www.w3.org/2000/svg"><title id="maestroTitle">Paiements compatibles Maestro</title><rect stroke="#000" fill="none" x=".5" y=".5" width="47" height="29" rx="2"/><path d="M20.524 24.608c-.175-.227-.44-.37-.8-.37-.71 0-1.265.554-1.265 1.324s.556 1.323 1.265 1.323c.36 0 .625-.142.8-.37v.307h.55v-2.52h-.55v.306zm-.731 1.761c-.477 0-.768-.363-.768-.806 0-.443.29-.806.768-.806.455 0 .762.347.762.806 0 .459-.307.806-.762.806zm-2.816-2.129c-.32-.005-.657.095-.89.446-.175-.279-.448-.446-.836-.446a.838.838 0 0 0-.742.374v-.31h-.55v2.518h.556v-1.398c0-.437.243-.67.62-.67.365 0 .55.238.55.664v1.402h.556v-1.396c0-.437.256-.67.62-.67.375 0 .556.238.556.664v1.402h.556v-1.58c-.002-.595-.383-.996-.998-1.001l.002.001zm13.295.368v-.306h-.545v2.519h.55v-1.413c0-.416.18-.648.54-.648a.9.9 0 0 1 .345.064l.17-.517a1.181 1.181 0 0 0-.392-.069.747.747 0 0 0-.668.37zm3.844.428a1.274 1.274 0 0 0-.718-.7 1.507 1.507 0 0 0-1.088 0 1.288 1.288 0 0 0-.715.699 1.395 1.395 0 0 0 0 1.053 1.287 1.287 0 0 0 .715.699c.35.135.739.135 1.088 0 .161-.064.308-.16.432-.28.123-.119.22-.262.286-.42a1.395 1.395 0 0 0 0-1.051zm-.526.853a.764.764 0 0 1-.42.42.865.865 0 0 1-.63 0 .744.744 0 0 1-.416-.42.912.912 0 0 1 0-.655.744.744 0 0 1 .417-.42.865.865 0 0 1 .629 0 .76.76 0 0 1 .42.42.912.912 0 0 1 0 .655zm-10.722-1.65c-.74 0-1.26.537-1.26 1.323 0 .801.54 1.323 1.298 1.323.384 0 .73-.095 1.038-.353l-.27-.406a1.21 1.21 0 0 1-.736.264c-.355 0-.678-.163-.758-.617h1.88c.005-.069.011-.137.011-.21-.007-.786-.493-1.324-1.203-1.324zm-.682 1.101c.058-.364.28-.611.672-.611.355 0 .583.22.64.611h-1.312zm6.315 1.022c-.275 0-.365-.168-.365-.421v-1.138h.9v-.501h-.9v-.764h-.556v.764h-.512v.5h.512v1.147c0 .585.227.933.878.933.244.001.482-.066.689-.194l-.159-.469a1.02 1.02 0 0 1-.487.143zm-2.694-1.054l-.259-.037c-.238-.032-.429-.079-.429-.247 0-.185.18-.295.482-.295.277.004.55.078.79.216l.237-.443c-.264-.174-.63-.264-1.032-.264-.64 0-1.053.306-1.053.807 0 .41.307.663.873.743l.26.037c.302.042.444.12.444.264 0 .194-.2.305-.576.305-.302.009-.599-.084-.842-.263l-.26.426c.303.222.684.327 1.097.327.731 0 1.152-.343 1.152-.822 0-.443-.333-.675-.884-.754zm10.47-19.415A9.564 9.564 0 0 0 24 4.877a9.574 9.574 0 0 0-9.904-.706 9.485 9.485 0 0 0-5.165 8.44 9.485 9.485 0 0 0 5.166 8.438A9.574 9.574 0 0 0 24 20.343a9.574 9.574 0 0 0 9.903.706 9.485 9.485 0 0 0 5.166-8.438 9.414 9.414 0 0 0-2.793-6.718zM24 18.839a8.302 8.302 0 0 1-2.817-6.228A8.302 8.302 0 0 1 24 6.383a8.306 8.306 0 0 1 2.815 6.228A8.306 8.306 0 0 1 24 18.839zm-5.529 2.074c-4.608 0-8.343-3.717-8.343-8.303s3.735-8.303 8.343-8.303a8.255 8.255 0 0 1 4.55 1.348 9.492 9.492 0 0 0-3.037 6.955c0 2.637 1.1 5.155 3.037 6.954a8.254 8.254 0 0 1-4.548 1.349h-.002zm11.054 0a8.255 8.255 0 0 1-4.544-1.346 9.498 9.498 0 0 0 3.035-6.956 9.498 9.498 0 0 0-3.035-6.955 8.255 8.255 0 0 1 4.548-1.349c4.608 0 8.343 3.717 8.343 8.303s-3.735 8.303-8.343 8.303h-.004z" /></svg>
