<svg aria-hidden="true" focusable="false" fill="#000" width="24" height="24" viewBox="0 0 24 24" xmlns="http://www.w3.org/2000/svg"><path fill="none" d="M0 0h24v24H0z"></path><path d="M5.778 20c-.49 0-.908-.174-1.256-.522A1.714 1.714 0 0 1 4 18.222V5.778c0-.49.174-.908.522-1.256A1.714 1.714 0 0 1 5.778 4h12.444c.49 0 .908.174 1.256.522.348.348.522.767.522 1.256v12.444c0 .49-.174.908-.522 1.256a1.714 1.714 0 0 1-1.256.522H5.778Zm0-1.778h12.444V5.778H5.778v12.444Zm2.666-1.778a.86.86 0 0 0 .634-.256.86.86 0 0 0 .255-.632.862.862 0 0 0-.255-.634.862.862 0 0 0-.634-.255.862.862 0 0 0-.633.255.862.862 0 0 0-.255.634.86.86 0 0 0 .255.632.86.86 0 0 0 .633.256Zm0-3.555a.86.86 0 0 0 .634-.256.86.86 0 0 0 .255-.633.862.862 0 0 0-.255-.634.862.862 0 0 0-.634-.255.862.862 0 0 0-.633.255.862.862 0 0 0-.255.634.86.86 0 0 0 .255.633.86.86 0 0 0 .633.256Zm0-3.556a.86.86 0 0 0 .634-.256.86.86 0 0 0 .255-.633.862.862 0 0 0-.255-.633.862.862 0 0 0-.634-.255.862.862 0 0 0-.633.255.862.862 0 0 0-.255.633.86.86 0 0 0 .255.633.86.86 0 0 0 .633.256Zm2.667 7.111h5.333v-1.777h-5.333v1.777Zm0-3.555h5.333V11.11h-5.333v1.778Zm0-3.556h5.333V7.556h-5.333v1.777Zm-5.333 8.89V5.777v12.444Z"></path></svg>