<svg viewBox="0 0 48 48" width="48" height="48" xmlns="http://www.w3.org/2000/svg" aria-hidden="true" focusable="false"><g fill="none"><path d="M0 0h48v48H0z"></path><path d="M18 26c4.42 0 8-3.58 8-8s-3.58-8-8-8-8 3.58-8 8 3.58 8 8 8Zm0-12c2.2 0 4 1.8 4 4s-1.8 4-4 4-4-1.8-4-4 1.8-4 4-4Zm0 16c-5.34 0-16 2.68-16 8v4h32v-4c0-5.32-10.66-8-16-8ZM6 38c.44-1.44 6.62-4 12-4 5.4 0 11.6 2.58 12 4H6Zm24.16-23.9c1.68 2.36 1.68 5.42 0 7.78l3.36 3.38c4.04-4.04 4.04-10.14 0-14.54l-3.36 3.38ZM40.14 4l-3.26 3.26c5.54 6.04 5.54 15.12 0 21.48L40.14 32c7.8-7.78 7.82-19.9 0-28Z" fill="#000"></path></g></svg>