<svg viewBox="0 0 48 48" width="48" height="48" xmlns="http://www.w3.org/2000/svg" aria-hidden="true" focusable="false"><g fill="none"><path d="M0 0h48v48H0z"></path><g transform="translate(4 4)" fill="#000"><path d="M20 40C8.98 40 0 31.02 0 20S8.98 0 20 0s20 8.08 20 18c0 6.62-5.38 12-12 12h-3.54c-.56 0-1 .44-1 1 0 .24.1.46.26.66.82.94 1.28 2.12 1.28 3.34 0 2.76-2.24 5-5 5Zm0-36C11.18 4 4 11.18 4 20s7.18 16 16 16c.56 0 1-.44 1-1 0-.32-.16-.56-.28-.7-.82-.92-1.26-2.1-1.26-3.3 0-2.76 2.24-5 5-5H28c4.42 0 8-3.58 8-8 0-7.72-7.18-14-16-14Z"></path><circle cx="9" cy="19" r="3"></circle><circle cx="15" cy="11" r="3"></circle><circle cx="25" cy="11" r="3"></circle><circle cx="31" cy="19" r="3"></circle></g></g></svg>