<svg viewBox="0 0 48 48" width="48" height="48" xmlns="http://www.w3.org/2000/svg" aria-hidden="true" focusable="false"><g fill="none"><path d="M0 0h48v48H0z"></path><path d="M18 27.5c-4.68 0-14 2.34-14 7V38h28v-3.5c0-4.66-9.32-7-14-7ZM8.68 34c1.68-1.16 5.74-2.5 9.32-2.5s7.64 1.34 9.32 2.5H8.68ZM18 24c3.86 0 7-3.14 7-7s-3.14-7-7-7-7 3.14-7 7 3.14 7 7 7Zm0-10c1.66 0 3 1.34 3 3s-1.34 3-3 3-3-1.34-3-3 1.34-3 3-3Zm14.08 13.62C34.4 29.3 36 31.54 36 34.5V38h8v-3.5c0-4.04-7-6.34-11.92-6.88ZM30 24c3.86 0 7-3.14 7-7s-3.14-7-7-7c-1.08 0-2.08.26-3 .7 1.26 1.78 2 3.96 2 6.3s-.74 4.52-2 6.3c.92.44 1.92.7 3 .7Z" fill="#000"></path></g></svg>