<svg viewBox="0 0 48 48" width="48" height="48" xmlns="http://www.w3.org/2000/svg" aria-hidden="true" focusable="false"><g fill="none"><path d="M0 0h48v48H0z"></path><path d="M27 11c2.2 0 4-1.8 4-4s-1.8-4-4-4-4 1.8-4 4 1.8 4 4 4Zm8 10.56c-2.46-.74-4.44-2.34-5.6-4.36l-2-3.2c-.82-1.3-2.22-2-3.68-2-1.56 0-3.18 1-3.56 2.88C19.78 16.76 14 46 14 46h4.2l3.6-16 4.2 4v12h4V31l-4.2-4 1.2-6c2 2.3 4.82 4.02 8 4.68V46h3V18h-3v3.56Zm-20.14 4.7-4.24-.82c-1.08-.22-1.8-1.26-1.58-2.34l1.52-7.86a4 4 0 0 1 4.68-3.16l2.32.46-2.7 13.72Z" fill="#000"></path></g></svg>