<svg fill="#000" viewBox="0 0 98 27" width="98" height="27" xmlns="http://www.w3.org/2000/svg" aria-hidden="true" focusable="false"><path d="M0 22.41h97.962V27H0zm83.685-5.062h4.7v-4.86h2.324c4.215 0 7.291-2.115 7.291-6.124v-.049C98 2.55 95.239.337 90.952.337h-7.267v17.01Zm4.7-8.554V4.298h2.203c1.696 0 2.713.778 2.713 2.236v.049c0 1.336-1.017 2.21-2.689 2.21h-2.228ZM74.3 17.663c4.82 0 7.945-2.405 7.945-7.897V.338h-4.771v9.574c0 2.381-1.236 3.499-3.125 3.499-1.89 0-3.124-1.166-3.124-3.62V.336h-4.772v9.55c0 5.322 3.028 7.776 7.848 7.776Zm-22.44-.315h13.76v-4.01h-9.11v-2.697h8.139V6.923H56.51V4.347h8.987V.337H51.86zm-19.678 0h4.602v-9.72l4.312 6.61h.097l4.335-6.66v9.77h4.675V.337h-4.965l-4.045 6.585L37.148.338h-4.966zM22.068 0c4.905 0 8.882 3.99 8.882 8.91s-3.977 8.91-8.882 8.91c-4.905 0-8.88-3.99-8.88-8.91S17.162 0 22.067 0Zm0 4.59a4.313 4.313 0 0 0-4.306 4.32 4.313 4.313 0 0 0 4.306 4.32 4.313 4.313 0 0 0 4.306-4.32 4.313 4.313 0 0 0-4.306-4.32Z"/><path d="M17.762 8.91c0 4.92-3.976 8.91-8.88 8.91C3.975 17.82 0 13.83 0 8.91S3.976 0 8.881 0v4.59a4.313 4.313 0 0 0-4.306 4.32 4.313 4.313 0 0 0 4.306 4.32 4.313 4.313 0 0 0 4.306-4.32Z"/></svg>
